<svg xmlns="http://www.w3.org/2000/svg" xmlns:xlink="http://www.w3.org/1999/xlink" contentStyleType="text/css" data-diagram-type="CLASS" height="410px" preserveAspectRatio="none" style="width:738px;height:410px;background:#FFFFFF;" version="1.1" viewBox="0 0 738 410" width="738px" zoomAndPan="magnify"><defs/><g><!--class TurnResultAnimationHandler--><g id="elem_TurnResultAnimationHandler"><rect codeLine="1" fill="#F1F1F1" height="96.8906" id="TurnResultAnimationHandler" rx="2.5" ry="2.5" style="stroke:#181818;stroke-width:0.5;" width="253.5479" x="242.37" y="7"/><ellipse cx="265.9688" cy="23" fill="#ADD1B2" rx="11" ry="11" style="stroke:#181818;stroke-width:1;"/><path d="M268.9375,28.6406 Q268.3594,28.9375 267.7188,29.0781 Q267.0782,29.2344 266.375,29.2344 Q263.875,29.2344 262.5469,27.5938 Q261.2344,25.9375 261.2344,22.8125 Q261.2344,19.6875 262.5469,18.0313 Q263.875,16.375 266.375,16.375 Q267.0782,16.375 267.7188,16.5313 Q268.375,16.6875 268.9375,16.9844 L268.9375,19.7031 Q268.3125,19.125 267.7188,18.8594 Q267.125,18.5781 266.5,18.5781 Q265.1563,18.5781 264.4688,19.6563 Q263.7813,20.7188 263.7813,22.8125 Q263.7813,24.9063 264.4688,25.9844 Q265.1563,27.0469 266.5,27.0469 Q267.125,27.0469 267.7188,26.7813 Q268.3125,26.5 268.9375,25.9219 L268.9375,28.6406 Z " fill="#000000"/><text fill="#000000" font-family="sans-serif" font-size="14" lengthAdjust="spacing" textLength="202.4395" x="281.8796" y="27.8467">TurnResultAnimationHandler</text><line style="stroke:#181818;stroke-width:0.5;" x1="243.37" x2="494.9179" y1="39" y2="39"/><line style="stroke:#181818;stroke-width:0.5;" x1="243.37" x2="494.9179" y1="47" y2="47"/><ellipse cx="253.37" cy="60.6484" fill="#84BE84" rx="3" ry="3" style="stroke:#038048;stroke-width:1;"/><text fill="#000000" font-family="sans-serif" font-size="14" lengthAdjust="spacing" textLength="227.5479" x="262.37" y="63.9951">isDoneWithAnimation(): boolean</text><ellipse cx="253.37" cy="76.9453" fill="#84BE84" rx="3" ry="3" style="stroke:#038048;stroke-width:1;"/><text fill="#000000" font-family="sans-serif" font-size="14" lengthAdjust="spacing" textLength="182.1436" x="262.37" y="80.292">progressAnimation(): void</text><ellipse cx="253.37" cy="93.2422" fill="#84BE84" rx="3" ry="3" style="stroke:#038048;stroke-width:1;"/><text fill="#000000" font-family="sans-serif" font-size="14" lengthAdjust="spacing" textLength="153.6992" x="262.37" y="96.5889">startAnimation(): void</text></g><!--class AbstractAnimation--><g id="elem_AbstractAnimation"><rect codeLine="7" fill="#F1F1F1" height="80.5938" id="AbstractAnimation" rx="2.5" ry="2.5" style="stroke:#181818;stroke-width:0.5;" width="218.2949" x="260" y="180.89"/><ellipse cx="300.2686" cy="196.89" fill="#ADD1B2" rx="11" ry="11" style="stroke:#181818;stroke-width:1;"/><path d="M303.2373,202.5306 Q302.6592,202.8275 302.0186,202.9681 Q301.3779,203.1244 300.6748,203.1244 Q298.1748,203.1244 296.8467,201.4838 Q295.5342,199.8275 295.5342,196.7025 Q295.5342,193.5775 296.8467,191.9213 Q298.1748,190.265 300.6748,190.265 Q301.3779,190.265 302.0186,190.4213 Q302.6748,190.5775 303.2373,190.8744 L303.2373,193.5931 Q302.6123,193.015 302.0186,192.7494 Q301.4248,192.4681 300.7998,192.4681 Q299.4561,192.4681 298.7686,193.5463 Q298.0811,194.6088 298.0811,196.7025 Q298.0811,198.7963 298.7686,199.8744 Q299.4561,200.9369 300.7998,200.9369 Q301.4248,200.9369 302.0186,200.6713 Q302.6123,200.39 303.2373,199.8119 L303.2373,202.5306 Z " fill="#000000"/><text fill="#000000" font-family="sans-serif" font-size="14" lengthAdjust="spacing" textLength="130.1426" x="319.8838" y="201.7367">AbstractAnimation</text><line style="stroke:#181818;stroke-width:0.5;" x1="261" x2="477.2949" y1="212.89" y2="212.89"/><line style="stroke:#181818;stroke-width:0.5;" x1="261" x2="477.2949" y1="220.89" y2="220.89"/><ellipse cx="271" cy="234.5384" fill="#84BE84" rx="3" ry="3" style="stroke:#038048;stroke-width:1;"/><text fill="#000000" font-family="sans-serif" font-size="14" lengthAdjust="spacing" textLength="192.2949" x="280" y="237.8851">isAnimationOver(): boolean</text><ellipse cx="271" cy="250.8353" fill="#84BE84" rx="3" ry="3" style="stroke:#038048;stroke-width:1;"/><text fill="#000000" font-family="sans-serif" font-size="14" lengthAdjust="spacing" textLength="153.6992" x="280" y="254.182">startAnimation(): void</text></g><!--class AttackAnimation--><g id="elem_AttackAnimation"><rect codeLine="12" fill="#F1F1F1" height="80.5938" id="AttackAnimation" rx="2.5" ry="2.5" style="stroke:#181818;stroke-width:0.5;" width="218.2949" x="7" y="322.49"/><ellipse cx="53.7407" cy="338.49" fill="#ADD1B2" rx="11" ry="11" style="stroke:#181818;stroke-width:1;"/><path d="M56.7095,344.1306 Q56.1313,344.4275 55.4907,344.5681 Q54.8501,344.7244 54.147,344.7244 Q51.647,344.7244 50.3188,343.0837 Q49.0063,341.4275 49.0063,338.3025 Q49.0063,335.1775 50.3188,333.5212 Q51.647,331.865 54.147,331.865 Q54.8501,331.865 55.4907,332.0212 Q56.147,332.1775 56.7095,332.4744 L56.7095,335.1931 Q56.0845,334.615 55.4907,334.3494 Q54.897,334.0681 54.272,334.0681 Q52.9282,334.0681 52.2407,335.1462 Q51.5532,336.2087 51.5532,338.3025 Q51.5532,340.3962 52.2407,341.4744 Q52.9282,342.5369 54.272,342.5369 Q54.897,342.5369 55.4907,342.2712 Q56.0845,341.99 56.7095,341.4119 L56.7095,344.1306 Z " fill="#000000"/><text fill="#000000" font-family="sans-serif" font-size="14" lengthAdjust="spacing" textLength="116.3135" x="74.2407" y="343.3367">AttackAnimation</text><line style="stroke:#181818;stroke-width:0.5;" x1="8" x2="224.2949" y1="354.49" y2="354.49"/><line style="stroke:#181818;stroke-width:0.5;" x1="8" x2="224.2949" y1="362.49" y2="362.49"/><ellipse cx="18" cy="376.1384" fill="#84BE84" rx="3" ry="3" style="stroke:#038048;stroke-width:1;"/><text fill="#000000" font-family="sans-serif" font-size="14" lengthAdjust="spacing" textLength="192.2949" x="27" y="379.4851">isAnimationOver(): boolean</text><ellipse cx="18" cy="392.4353" fill="#84BE84" rx="3" ry="3" style="stroke:#038048;stroke-width:1;"/><text fill="#000000" font-family="sans-serif" font-size="14" lengthAdjust="spacing" textLength="153.6992" x="27" y="395.782">startAnimation(): void</text></g><!--class CollisionAnimation--><g id="elem_CollisionAnimation"><rect codeLine="17" fill="#F1F1F1" height="80.5938" id="CollisionAnimation" rx="2.5" ry="2.5" style="stroke:#181818;stroke-width:0.5;" width="218.2949" x="260" y="322.49"/><ellipse cx="300.3301" cy="338.49" fill="#ADD1B2" rx="11" ry="11" style="stroke:#181818;stroke-width:1;"/><path d="M303.2988,344.1306 Q302.7207,344.4275 302.0801,344.5681 Q301.4395,344.7244 300.7363,344.7244 Q298.2363,344.7244 296.9082,343.0837 Q295.5957,341.4275 295.5957,338.3025 Q295.5957,335.1775 296.9082,333.5212 Q298.2363,331.865 300.7363,331.865 Q301.4395,331.865 302.0801,332.0212 Q302.7363,332.1775 303.2988,332.4744 L303.2988,335.1931 Q302.6738,334.615 302.0801,334.3494 Q301.4863,334.0681 300.8613,334.0681 Q299.5176,334.0681 298.8301,335.1462 Q298.1426,336.2087 298.1426,338.3025 Q298.1426,340.3962 298.8301,341.4744 Q299.5176,342.5369 300.8613,342.5369 Q301.4863,342.5369 302.0801,342.2712 Q302.6738,341.99 303.2988,341.4119 L303.2988,344.1306 Z " fill="#000000"/><text fill="#000000" font-family="sans-serif" font-size="14" lengthAdjust="spacing" textLength="130.0059" x="319.959" y="343.3367">CollisionAnimation</text><line style="stroke:#181818;stroke-width:0.5;" x1="261" x2="477.2949" y1="354.49" y2="354.49"/><line style="stroke:#181818;stroke-width:0.5;" x1="261" x2="477.2949" y1="362.49" y2="362.49"/><ellipse cx="271" cy="376.1384" fill="#84BE84" rx="3" ry="3" style="stroke:#038048;stroke-width:1;"/><text fill="#000000" font-family="sans-serif" font-size="14" lengthAdjust="spacing" textLength="192.2949" x="280" y="379.4851">isAnimationOver(): boolean</text><ellipse cx="271" cy="392.4353" fill="#84BE84" rx="3" ry="3" style="stroke:#038048;stroke-width:1;"/><text fill="#000000" font-family="sans-serif" font-size="14" lengthAdjust="spacing" textLength="153.6992" x="280" y="395.782">startAnimation(): void</text></g><!--class MovementAnimation--><g id="elem_MovementAnimation"><rect codeLine="22" fill="#F1F1F1" height="80.5938" id="MovementAnimation" rx="2.5" ry="2.5" style="stroke:#181818;stroke-width:0.5;" width="218.2949" x="513" y="322.49"/><ellipse cx="546.3441" cy="338.49" fill="#ADD1B2" rx="11" ry="11" style="stroke:#181818;stroke-width:1;"/><path d="M549.3128,344.1306 Q548.7347,344.4275 548.0941,344.5681 Q547.4535,344.7244 546.7503,344.7244 Q544.2503,344.7244 542.9222,343.0837 Q541.6097,341.4275 541.6097,338.3025 Q541.6097,335.1775 542.9222,333.5212 Q544.2503,331.865 546.7503,331.865 Q547.4535,331.865 548.0941,332.0212 Q548.7503,332.1775 549.3128,332.4744 L549.3128,335.1931 Q548.6878,334.615 548.0941,334.3494 Q547.5003,334.0681 546.8753,334.0681 Q545.5316,334.0681 544.8441,335.1462 Q544.1566,336.2087 544.1566,338.3025 Q544.1566,340.3962 544.8441,341.4744 Q545.5316,342.5369 546.8753,342.5369 Q547.5003,342.5369 548.0941,342.2712 Q548.6878,341.99 549.3128,341.4119 L549.3128,344.1306 Z " fill="#000000"/><text fill="#000000" font-family="sans-serif" font-size="14" lengthAdjust="spacing" textLength="145.5303" x="564.4206" y="343.3367">MovementAnimation</text><line style="stroke:#181818;stroke-width:0.5;" x1="514" x2="730.2949" y1="354.49" y2="354.49"/><line style="stroke:#181818;stroke-width:0.5;" x1="514" x2="730.2949" y1="362.49" y2="362.49"/><ellipse cx="524" cy="376.1384" fill="#84BE84" rx="3" ry="3" style="stroke:#038048;stroke-width:1;"/><text fill="#000000" font-family="sans-serif" font-size="14" lengthAdjust="spacing" textLength="192.2949" x="533" y="379.4851">isAnimationOver(): boolean</text><ellipse cx="524" cy="392.4353" fill="#84BE84" rx="3" ry="3" style="stroke:#038048;stroke-width:1;"/><text fill="#000000" font-family="sans-serif" font-size="14" lengthAdjust="spacing" textLength="153.6992" x="533" y="395.782">startAnimation(): void</text></g><!--link TurnResultAnimationHandler to AbstractAnimation--><g id="link_TurnResultAnimationHandler_AbstractAnimation"><path codeLine="27" d="M369.15,104.25 C369.15,128.51 369.15,151.63 369.15,174.61 " fill="#FFFFFF" fill-opacity="0.00000" id="TurnResultAnimationHandler-to-AbstractAnimation" style="stroke:#181818;stroke-width:1;"/><polygon fill="#181818" points="369.15,180.61,373.15,171.61,369.15,175.61,365.15,171.61,369.15,180.61" style="stroke:#181818;stroke-width:1;"/><polygon fill="#000000" points="374.15,147.4564,377.0889,138.4113,371.2111,138.4113,374.15,147.4564" style="stroke:#000000;stroke-width:1;"/><text fill="#000000" font-family="sans-serif" font-size="13" lengthAdjust="spacing" textLength="29.7832" x="383.15" y="146.9569">uses</text></g><!--reverse link AbstractAnimation to AttackAnimation--><g id="link_AbstractAnimation_AttackAnimation"><path codeLine="28" d="M281.56,270.5161 C247.38,289.3761 222.36,303.18 188.15,322.06 " fill="#FFFFFF" fill-opacity="0.00000" id="AbstractAnimation-backto-AttackAnimation" style="stroke:#181818;stroke-width:1;"/><polygon fill="#FFFFFF" fill-opacity="0.00000" points="297.32,261.82,278.6613,265.2628,284.4587,275.7695,297.32,261.82" style="stroke:#181818;stroke-width:1;"/></g><!--reverse link AbstractAnimation to CollisionAnimation--><g id="link_AbstractAnimation_CollisionAnimation"><path codeLine="29" d="M369.15,279.82 C369.15,298.68 369.15,303.18 369.15,322.06 " fill="#FFFFFF" fill-opacity="0.00000" id="AbstractAnimation-backto-CollisionAnimation" style="stroke:#181818;stroke-width:1;"/><polygon fill="#FFFFFF" fill-opacity="0.00000" points="369.15,261.82,363.15,279.82,375.15,279.82,369.15,261.82" style="stroke:#181818;stroke-width:1;"/></g><!--reverse link AbstractAnimation to MovementAnimation--><g id="link_AbstractAnimation_MovementAnimation"><path codeLine="30" d="M456.7311,270.5142 C490.9211,289.3742 515.94,303.18 550.14,322.06 " fill="#FFFFFF" fill-opacity="0.00000" id="AbstractAnimation-backto-MovementAnimation" style="stroke:#181818;stroke-width:1;"/><polygon fill="#FFFFFF" fill-opacity="0.00000" points="440.97,261.82,453.833,275.7679,459.6291,265.2605,440.97,261.82" style="stroke:#181818;stroke-width:1;"/></g><!--SRC=[jP7F2i8m3CRlVOeU5UaB31aCFNWHGGJFNHUqs3MZoNPHtzqXO_wfqulBCT-FByaNupIHtDN1Ru5gnvctfMQBVgLzuI38iv1jpQIb9NhOMpxso6IQo1pHWVOTL0Ky121wGHgqHQSJwy2nU1N2tFV8SkAWpGDv6j_tDWs4UFHFQsPjJYCOBz0vIwqqWlSQ6oZ1_pUFByzMAltmWqJM12HJ4KlpYrBlqGvXSL13P7Js3G00]--></g></svg>