<svg xmlns="http://www.w3.org/2000/svg" xmlns:xlink="http://www.w3.org/1999/xlink" contentStyleType="text/css" data-diagram-type="CLASS" height="410px" preserveAspectRatio="none" style="width:1334px;height:410px;background:#FFFFFF;" version="1.1" viewBox="0 0 1334 410" width="1334px" zoomAndPan="magnify"><defs/><g><!--class TurnResultAnimationHandler--><g id="elem_TurnResultAnimationHandler"><rect codeLine="1" fill="#F1F1F1" height="96.8906" id="TurnResultAnimationHandler" rx="2.5" ry="2.5" style="stroke:#181818;stroke-width:0.5;" width="253.5479" x="540.57" y="7"/><ellipse cx="564.1688" cy="23" fill="#ADD1B2" rx="11" ry="11" style="stroke:#181818;stroke-width:1;"/><path d="M567.1375,28.6406 Q566.5594,28.9375 565.9188,29.0781 Q565.2782,29.2344 564.575,29.2344 Q562.075,29.2344 560.7469,27.5938 Q559.4344,25.9375 559.4344,22.8125 Q559.4344,19.6875 560.7469,18.0313 Q562.075,16.375 564.575,16.375 Q565.2782,16.375 565.9188,16.5313 Q566.575,16.6875 567.1375,16.9844 L567.1375,19.7031 Q566.5125,19.125 565.9188,18.8594 Q565.325,18.5781 564.7,18.5781 Q563.3563,18.5781 562.6688,19.6563 Q561.9813,20.7188 561.9813,22.8125 Q561.9813,24.9063 562.6688,25.9844 Q563.3563,27.0469 564.7,27.0469 Q565.325,27.0469 565.9188,26.7813 Q566.5125,26.5 567.1375,25.9219 L567.1375,28.6406 Z " fill="#000000"/><text fill="#000000" font-family="sans-serif" font-size="14" lengthAdjust="spacing" textLength="202.4395" x="580.0796" y="27.8467">TurnResultAnimationHandler</text><line style="stroke:#181818;stroke-width:0.5;" x1="541.57" x2="793.1179" y1="39" y2="39"/><line style="stroke:#181818;stroke-width:0.5;" x1="541.57" x2="793.1179" y1="47" y2="47"/><ellipse cx="551.57" cy="60.6484" fill="#84BE84" rx="3" ry="3" style="stroke:#038048;stroke-width:1;"/><text fill="#000000" font-family="sans-serif" font-size="14" lengthAdjust="spacing" textLength="227.5479" x="560.57" y="63.9951">isDoneWithAnimation(): boolean</text><ellipse cx="551.57" cy="76.9453" fill="#84BE84" rx="3" ry="3" style="stroke:#038048;stroke-width:1;"/><text fill="#000000" font-family="sans-serif" font-size="14" lengthAdjust="spacing" textLength="182.1436" x="560.57" y="80.292">progressAnimation(): void</text><ellipse cx="551.57" cy="93.2422" fill="#84BE84" rx="3" ry="3" style="stroke:#038048;stroke-width:1;"/><text fill="#000000" font-family="sans-serif" font-size="14" lengthAdjust="spacing" textLength="153.6992" x="560.57" y="96.5889">startAnimation(): void</text></g><!--class AbstractAnimation--><g id="elem_AbstractAnimation"><rect codeLine="7" fill="#F1F1F1" height="80.5938" id="AbstractAnimation" rx="2.5" ry="2.5" style="stroke:#181818;stroke-width:0.5;" width="416.6943" x="459" y="180.89"/><ellipse cx="598.0259" cy="196.89" fill="#ADD1B2" rx="11" ry="11" style="stroke:#181818;stroke-width:1;"/><path d="M600.9946,202.5306 Q600.4165,202.8275 599.7759,202.9681 Q599.1353,203.1244 598.4321,203.1244 Q595.9321,203.1244 594.604,201.4838 Q593.2915,199.8275 593.2915,196.7025 Q593.2915,193.5775 594.604,191.9213 Q595.9321,190.265 598.4321,190.265 Q599.1353,190.265 599.7759,190.4213 Q600.4321,190.5775 600.9946,190.8744 L600.9946,193.5931 Q600.3696,193.015 599.7759,192.7494 Q599.1821,192.4681 598.5571,192.4681 Q597.2134,192.4681 596.5259,193.5463 Q595.8384,194.6088 595.8384,196.7025 Q595.8384,198.7963 596.5259,199.8744 Q597.2134,200.9369 598.5571,200.9369 Q599.1821,200.9369 599.7759,200.6713 Q600.3696,200.39 600.9946,199.8119 L600.9946,202.5306 Z " fill="#000000"/><text fill="#000000" font-family="sans-serif" font-size="14" lengthAdjust="spacing" textLength="130.1426" x="618.5259" y="201.7367">AbstractAnimation</text><line style="stroke:#181818;stroke-width:0.5;" x1="460" x2="874.6943" y1="212.89" y2="212.89"/><line style="stroke:#181818;stroke-width:0.5;" x1="460" x2="874.6943" y1="220.89" y2="220.89"/><ellipse cx="470" cy="234.5384" fill="#84BE84" rx="3" ry="3" style="stroke:#038048;stroke-width:1;"/><text fill="#000000" font-family="sans-serif" font-size="14" lengthAdjust="spacing" textLength="192.2949" x="479" y="237.8851">isAnimationOver(): boolean</text><ellipse cx="470" cy="250.8353" fill="#84BE84" rx="3" ry="3" style="stroke:#038048;stroke-width:1;"/><text fill="#000000" font-family="sans-serif" font-size="14" lengthAdjust="spacing" textLength="390.6943" x="479" y="254.182">startAnimation(outcomeLayer: TiledMapTileLayer): void</text></g><!--class AttackAnimation--><g id="elem_AttackAnimation"><rect codeLine="12" fill="#F1F1F1" height="80.5938" id="AttackAnimation" rx="2.5" ry="2.5" style="stroke:#181818;stroke-width:0.5;" width="416.6943" x="7" y="322.49"/><ellipse cx="152.9404" cy="338.49" fill="#ADD1B2" rx="11" ry="11" style="stroke:#181818;stroke-width:1;"/><path d="M155.9092,344.1306 Q155.3311,344.4275 154.6904,344.5681 Q154.0498,344.7244 153.3467,344.7244 Q150.8467,344.7244 149.5186,343.0837 Q148.2061,341.4275 148.2061,338.3025 Q148.2061,335.1775 149.5186,333.5212 Q150.8467,331.865 153.3467,331.865 Q154.0498,331.865 154.6904,332.0212 Q155.3467,332.1775 155.9092,332.4744 L155.9092,335.1931 Q155.2842,334.615 154.6904,334.3494 Q154.0967,334.0681 153.4717,334.0681 Q152.1279,334.0681 151.4404,335.1462 Q150.7529,336.2087 150.7529,338.3025 Q150.7529,340.3962 151.4404,341.4744 Q152.1279,342.5369 153.4717,342.5369 Q154.0967,342.5369 154.6904,342.2712 Q155.2842,341.99 155.9092,341.4119 L155.9092,344.1306 Z " fill="#000000"/><text fill="#000000" font-family="sans-serif" font-size="14" lengthAdjust="spacing" textLength="116.3135" x="173.4404" y="343.3367">AttackAnimation</text><line style="stroke:#181818;stroke-width:0.5;" x1="8" x2="422.6943" y1="354.49" y2="354.49"/><line style="stroke:#181818;stroke-width:0.5;" x1="8" x2="422.6943" y1="362.49" y2="362.49"/><ellipse cx="18" cy="376.1384" fill="#84BE84" rx="3" ry="3" style="stroke:#038048;stroke-width:1;"/><text fill="#000000" font-family="sans-serif" font-size="14" lengthAdjust="spacing" textLength="192.2949" x="27" y="379.4851">isAnimationOver(): boolean</text><ellipse cx="18" cy="392.4353" fill="#84BE84" rx="3" ry="3" style="stroke:#038048;stroke-width:1;"/><text fill="#000000" font-family="sans-serif" font-size="14" lengthAdjust="spacing" textLength="390.6943" x="27" y="395.782">startAnimation(outcomeLayer: TiledMapTileLayer): void</text></g><!--class CollisionAnimation--><g id="elem_CollisionAnimation"><rect codeLine="17" fill="#F1F1F1" height="80.5938" id="CollisionAnimation" rx="2.5" ry="2.5" style="stroke:#181818;stroke-width:0.5;" width="416.6943" x="459" y="322.49"/><ellipse cx="598.0942" cy="338.49" fill="#ADD1B2" rx="11" ry="11" style="stroke:#181818;stroke-width:1;"/><path d="M601.063,344.1306 Q600.4849,344.4275 599.8442,344.5681 Q599.2036,344.7244 598.5005,344.7244 Q596.0005,344.7244 594.6724,343.0837 Q593.3599,341.4275 593.3599,338.3025 Q593.3599,335.1775 594.6724,333.5212 Q596.0005,331.865 598.5005,331.865 Q599.2036,331.865 599.8442,332.0212 Q600.5005,332.1775 601.063,332.4744 L601.063,335.1931 Q600.438,334.615 599.8442,334.3494 Q599.2505,334.0681 598.6255,334.0681 Q597.2817,334.0681 596.5942,335.1462 Q595.9067,336.2087 595.9067,338.3025 Q595.9067,340.3962 596.5942,341.4744 Q597.2817,342.5369 598.6255,342.5369 Q599.2505,342.5369 599.8442,342.2712 Q600.438,341.99 601.063,341.4119 L601.063,344.1306 Z " fill="#000000"/><text fill="#000000" font-family="sans-serif" font-size="14" lengthAdjust="spacing" textLength="130.0059" x="618.5942" y="343.3367">CollisionAnimation</text><line style="stroke:#181818;stroke-width:0.5;" x1="460" x2="874.6943" y1="354.49" y2="354.49"/><line style="stroke:#181818;stroke-width:0.5;" x1="460" x2="874.6943" y1="362.49" y2="362.49"/><ellipse cx="470" cy="376.1384" fill="#84BE84" rx="3" ry="3" style="stroke:#038048;stroke-width:1;"/><text fill="#000000" font-family="sans-serif" font-size="14" lengthAdjust="spacing" textLength="192.2949" x="479" y="379.4851">isAnimationOver(): boolean</text><ellipse cx="470" cy="392.4353" fill="#84BE84" rx="3" ry="3" style="stroke:#038048;stroke-width:1;"/><text fill="#000000" font-family="sans-serif" font-size="14" lengthAdjust="spacing" textLength="390.6943" x="479" y="395.782">startAnimation(outcomeLayer: TiledMapTileLayer): void</text></g><!--class MovementAnimation--><g id="elem_MovementAnimation"><rect codeLine="22" fill="#F1F1F1" height="80.5938" id="MovementAnimation" rx="2.5" ry="2.5" style="stroke:#181818;stroke-width:0.5;" width="416.6943" x="911" y="322.49"/><ellipse cx="1042.332" cy="338.49" fill="#ADD1B2" rx="11" ry="11" style="stroke:#181818;stroke-width:1;"/><path d="M1045.3008,344.1306 Q1044.7227,344.4275 1044.082,344.5681 Q1043.4414,344.7244 1042.7383,344.7244 Q1040.2383,344.7244 1038.9102,343.0837 Q1037.5977,341.4275 1037.5977,338.3025 Q1037.5977,335.1775 1038.9102,333.5212 Q1040.2383,331.865 1042.7383,331.865 Q1043.4414,331.865 1044.082,332.0212 Q1044.7383,332.1775 1045.3008,332.4744 L1045.3008,335.1931 Q1044.6758,334.615 1044.082,334.3494 Q1043.4883,334.0681 1042.8633,334.0681 Q1041.5195,334.0681 1040.832,335.1462 Q1040.1445,336.2087 1040.1445,338.3025 Q1040.1445,340.3962 1040.832,341.4744 Q1041.5195,342.5369 1042.8633,342.5369 Q1043.4883,342.5369 1044.082,342.2712 Q1044.6758,341.99 1045.3008,341.4119 L1045.3008,344.1306 Z " fill="#000000"/><text fill="#000000" font-family="sans-serif" font-size="14" lengthAdjust="spacing" textLength="145.5303" x="1062.832" y="343.3367">MovementAnimation</text><line style="stroke:#181818;stroke-width:0.5;" x1="912" x2="1326.6943" y1="354.49" y2="354.49"/><line style="stroke:#181818;stroke-width:0.5;" x1="912" x2="1326.6943" y1="362.49" y2="362.49"/><ellipse cx="922" cy="376.1384" fill="#84BE84" rx="3" ry="3" style="stroke:#038048;stroke-width:1;"/><text fill="#000000" font-family="sans-serif" font-size="14" lengthAdjust="spacing" textLength="192.2949" x="931" y="379.4851">isAnimationOver(): boolean</text><ellipse cx="922" cy="392.4353" fill="#84BE84" rx="3" ry="3" style="stroke:#038048;stroke-width:1;"/><text fill="#000000" font-family="sans-serif" font-size="14" lengthAdjust="spacing" textLength="390.6943" x="931" y="395.782">startAnimation(outcomeLayer: TiledMapTileLayer): void</text></g><!--link TurnResultAnimationHandler to AbstractAnimation--><g id="link_TurnResultAnimationHandler_AbstractAnimation"><path codeLine="27" d="M667.35,104.25 C667.35,128.51 667.35,151.63 667.35,174.61 " fill="#FFFFFF" fill-opacity="0.00000" id="TurnResultAnimationHandler-to-AbstractAnimation" style="stroke:#181818;stroke-width:1;"/><polygon fill="#181818" points="667.35,180.61,671.35,171.61,667.35,175.61,663.35,171.61,667.35,180.61" style="stroke:#181818;stroke-width:1;"/><polygon fill="#000000" points="672.35,147.4564,675.2889,138.4113,669.4111,138.4113,672.35,147.4564" style="stroke:#000000;stroke-width:1;"/><text fill="#000000" font-family="sans-serif" font-size="13" lengthAdjust="spacing" textLength="29.7832" x="681.35" y="146.9569">uses</text></g><!--reverse link AbstractAnimation to AttackAnimation--><g id="link_AbstractAnimation_AttackAnimation"><path codeLine="28" d="M521.5315,267.2214 C460.4615,286.0814 404.87,303.25 343.82,322.11 " fill="#FFFFFF" fill-opacity="0.00000" id="AbstractAnimation-backto-AttackAnimation" style="stroke:#181818;stroke-width:1;"/><polygon fill="#FFFFFF" fill-opacity="0.00000" points="538.73,261.91,519.761,261.4885,523.3019,272.9542,538.73,261.91" style="stroke:#181818;stroke-width:1;"/></g><!--reverse link AbstractAnimation to CollisionAnimation--><g id="link_AbstractAnimation_CollisionAnimation"><path codeLine="29" d="M667.35,279.82 C667.35,298.68 667.35,303.18 667.35,322.06 " fill="#FFFFFF" fill-opacity="0.00000" id="AbstractAnimation-backto-CollisionAnimation" style="stroke:#181818;stroke-width:1;"/><polygon fill="#FFFFFF" fill-opacity="0.00000" points="667.35,261.82,661.35,279.82,673.35,279.82,667.35,261.82" style="stroke:#181818;stroke-width:1;"/></g><!--reverse link AbstractAnimation to MovementAnimation--><g id="link_AbstractAnimation_MovementAnimation"><path codeLine="30" d="M813.1683,267.2221 C874.2283,286.0821 929.83,303.25 990.87,322.11 " fill="#FFFFFF" fill-opacity="0.00000" id="AbstractAnimation-backto-MovementAnimation" style="stroke:#181818;stroke-width:1;"/><polygon fill="#FFFFFF" fill-opacity="0.00000" points="795.97,261.91,811.3976,272.9549,814.939,261.4894,795.97,261.91" style="stroke:#181818;stroke-width:1;"/></g><!--SRC=[lPBF2i8m3CRlUueU5TaB31667ZmeWWYUioveiMj6amr4VNVd6FDFrUDwAUJx9L_vKcs1MUqgxxR8bPNKcGB4a5k2oorwTObKSoRAy88SxeqSUsGqJbH6P15S1vMU3XwPtv2QJDxfBE0b56zHfDjtf1cB1_r4NkpxsgP67rf_ZAPAD1MuWZFwHEsCnNmDvUDkIw6p2EZJyBvpijPmqpcyzPfgBD0D6lQVZnR7io_xJrJ5o6eMXTBq6iUVU_k5XJ7_8eDKxW00]--></g></svg>