<svg xmlns="http://www.w3.org/2000/svg" xmlns:xlink="http://www.w3.org/1999/xlink" contentStyleType="text/css" data-diagram-type="CLASS" height="654px" preserveAspectRatio="none" style="width:2843px;height:654px;background:#FFFFFF;" version="1.1" viewBox="0 0 2843 654" width="2843px" zoomAndPan="magnify"><defs/><g><!--class TurnResultAnimationHandler--><g id="elem_TurnResultAnimationHandler"><rect codeLine="1" fill="#F1F1F1" height="227.2656" id="TurnResultAnimationHandler" rx="2.5" ry="2.5" style="stroke:#181818;stroke-width:0.5;" width="1223.2324" x="944.31" y="7"/><ellipse cx="1450.4565" cy="23" fill="#ADD1B2" rx="11" ry="11" style="stroke:#181818;stroke-width:1;"/><path d="M1453.4252,28.6406 Q1452.8471,28.9375 1452.2065,29.0781 Q1451.5659,29.2344 1450.8627,29.2344 Q1448.3627,29.2344 1447.0346,27.5938 Q1445.7221,25.9375 1445.7221,22.8125 Q1445.7221,19.6875 1447.0346,18.0313 Q1448.3627,16.375 1450.8627,16.375 Q1451.5659,16.375 1452.2065,16.5313 Q1452.8627,16.6875 1453.4252,16.9844 L1453.4252,19.7031 Q1452.8002,19.125 1452.2065,18.8594 Q1451.6127,18.5781 1450.9877,18.5781 Q1449.644,18.5781 1448.9565,19.6563 Q1448.269,20.7188 1448.269,22.8125 Q1448.269,24.9063 1448.9565,25.9844 Q1449.644,27.0469 1450.9877,27.0469 Q1451.6127,27.0469 1452.2065,26.7813 Q1452.8002,26.5 1453.4252,25.9219 L1453.4252,28.6406 Z " fill="#000000"/><text fill="#000000" font-family="sans-serif" font-size="14" lengthAdjust="spacing" textLength="202.4395" x="1470.9565" y="27.8467">TurnResultAnimationHandler</text><line style="stroke:#181818;stroke-width:0.5;" x1="945.31" x2="2166.5424" y1="39" y2="39"/><rect fill="#FFFFFF" fill-opacity="0.00000" height="6" style="stroke:#C82930;stroke-width:1;" width="6" x="952.31" y="49.6484"/><text fill="#000000" font-family="sans-serif" font-size="14" lengthAdjust="spacing" textLength="362.8584" x="964.31" y="55.9951">animationQueue: ArrayDeque&lt;AbstractAnimation&gt;</text><rect fill="#FFFFFF" fill-opacity="0.00000" height="6" style="stroke:#C82930;stroke-width:1;" width="6" x="952.31" y="65.9453"/><text fill="#000000" font-family="sans-serif" font-size="14" lengthAdjust="spacing" textLength="132.8564" x="964.31" y="72.292">tiledMap: TiledMap</text><rect fill="#FFFFFF" fill-opacity="0.00000" height="6" style="stroke:#C82930;stroke-width:1;" width="6" x="952.31" y="82.2422"/><text fill="#000000" font-family="sans-serif" font-size="14" lengthAdjust="spacing" textLength="209.1934" x="964.31" y="88.5889">mathService: TileMathService</text><rect fill="#FFFFFF" fill-opacity="0.00000" height="6" style="stroke:#C82930;stroke-width:1;" width="6" x="952.31" y="98.5391"/><text fill="#000000" font-family="sans-serif" font-size="14" lengthAdjust="spacing" textLength="236.9951" x="964.31" y="104.8857">outcomeLayer: TiledMapTileLayer</text><rect fill="#FFFFFF" fill-opacity="0.00000" height="6" style="stroke:#C82930;stroke-width:1;" width="6" x="952.31" y="114.8359"/><text fill="#000000" font-family="sans-serif" font-size="14" lengthAdjust="spacing" textLength="169.1895" x="964.31" y="121.1826">animationOver: boolean</text><rect fill="#FFFFFF" fill-opacity="0.00000" height="6" style="stroke:#C82930;stroke-width:1;" width="6" x="952.31" y="131.1328"/><text fill="#000000" font-family="sans-serif" font-size="14" lengthAdjust="spacing" textLength="187.2158" x="964.31" y="137.4795">animationStarted: boolean</text><line style="stroke:#181818;stroke-width:0.5;" x1="945.31" x2="2166.5424" y1="144.7813" y2="144.7813"/><ellipse cx="955.31" cy="158.4297" fill="#84BE84" rx="3" ry="3" style="stroke:#038048;stroke-width:1;"/><text fill="#000000" font-family="sans-serif" font-size="14" lengthAdjust="spacing" textLength="1197.2324" x="964.31" y="161.7764">TurnResultAnimationHandler(turnResult: TurnResult, spriteMapper: Map&lt;String, CharacterSprite&gt;, tiledMap: TiledMap, mathService: TileMathService, atlas: TextureAtlas)</text><ellipse cx="955.31" cy="174.7266" fill="#84BE84" rx="3" ry="3" style="stroke:#038048;stroke-width:1;"/><text fill="#000000" font-family="sans-serif" font-size="14" lengthAdjust="spacing" textLength="227.5479" x="964.31" y="178.0732">isDoneWithAnimation(): boolean</text><ellipse cx="955.31" cy="191.0234" fill="#84BE84" rx="3" ry="3" style="stroke:#038048;stroke-width:1;"/><text fill="#000000" font-family="sans-serif" font-size="14" lengthAdjust="spacing" textLength="182.1436" x="964.31" y="194.3701">progressAnimation(): void</text><ellipse cx="955.31" cy="207.3203" fill="#84BE84" rx="3" ry="3" style="stroke:#038048;stroke-width:1;"/><text fill="#000000" font-family="sans-serif" font-size="14" lengthAdjust="spacing" textLength="153.6992" x="964.31" y="210.667">startAnimation(): void</text><rect fill="#F24D5C" height="6" style="stroke:#C82930;stroke-width:1;" width="6" x="952.31" y="220.6172"/><text fill="#000000" font-family="sans-serif" font-size="14" lengthAdjust="spacing" textLength="202.4805" x="964.31" y="226.9639">refreshOutcomeLayer(): void</text></g><!--class AbstractAnimation--><g id="elem_AbstractAnimation"><rect codeLine="15" fill="#F1F1F1" height="96.8906" id="AbstractAnimation" rx="2.5" ry="2.5" style="stroke:#181818;stroke-width:0.5;" width="416.6943" x="1347.58" y="311.26"/><ellipse cx="1486.6059" cy="327.26" fill="#ADD1B2" rx="11" ry="11" style="stroke:#181818;stroke-width:1;"/><path d="M1489.5746,332.9006 Q1488.9965,333.1975 1488.3559,333.3381 Q1487.7153,333.4944 1487.0121,333.4944 Q1484.5121,333.4944 1483.184,331.8538 Q1481.8715,330.1975 1481.8715,327.0725 Q1481.8715,323.9475 1483.184,322.2913 Q1484.5121,320.635 1487.0121,320.635 Q1487.7153,320.635 1488.3559,320.7913 Q1489.0121,320.9475 1489.5746,321.2444 L1489.5746,323.9631 Q1488.9496,323.385 1488.3559,323.1194 Q1487.7621,322.8381 1487.1371,322.8381 Q1485.7934,322.8381 1485.1059,323.9163 Q1484.4184,324.9788 1484.4184,327.0725 Q1484.4184,329.1663 1485.1059,330.2444 Q1485.7934,331.3069 1487.1371,331.3069 Q1487.7621,331.3069 1488.3559,331.0413 Q1488.9496,330.76 1489.5746,330.1819 L1489.5746,332.9006 Z " fill="#000000"/><text fill="#000000" font-family="sans-serif" font-size="14" lengthAdjust="spacing" textLength="130.1426" x="1507.1059" y="332.1067">AbstractAnimation</text><line style="stroke:#181818;stroke-width:0.5;" x1="1348.58" x2="1763.2743" y1="343.26" y2="343.26"/><rect fill="#FFFFFF" fill-opacity="0.00000" height="6" style="stroke:#C82930;stroke-width:1;" width="6" x="1355.58" y="353.9084"/><text fill="#000000" font-family="sans-serif" font-size="14" lengthAdjust="spacing" textLength="236.9951" x="1367.58" y="360.2551">outcomeLayer: TiledMapTileLayer</text><line style="stroke:#181818;stroke-width:0.5;" x1="1348.58" x2="1763.2743" y1="367.5569" y2="367.5569"/><ellipse cx="1358.58" cy="381.2053" fill="#84BE84" rx="3" ry="3" style="stroke:#038048;stroke-width:1;"/><text fill="#000000" font-family="sans-serif" font-size="14" lengthAdjust="spacing" textLength="192.2949" x="1367.58" y="384.552">isAnimationOver(): boolean</text><ellipse cx="1358.58" cy="397.5022" fill="#84BE84" rx="3" ry="3" style="stroke:#038048;stroke-width:1;"/><text fill="#000000" font-family="sans-serif" font-size="14" lengthAdjust="spacing" textLength="390.6943" x="1367.58" y="400.8489">startAnimation(outcomeLayer: TiledMapTileLayer): void</text></g><!--class AttackAnimation--><g id="elem_AttackAnimation"><rect codeLine="21" fill="#F1F1F1" height="178.375" id="AttackAnimation" rx="2.5" ry="2.5" style="stroke:#181818;stroke-width:0.5;" width="929.8477" x="7" y="469.15"/><ellipse cx="409.5171" cy="485.15" fill="#ADD1B2" rx="11" ry="11" style="stroke:#181818;stroke-width:1;"/><path d="M412.4858,490.7906 Q411.9077,491.0875 411.2671,491.2281 Q410.6265,491.3844 409.9233,491.3844 Q407.4233,491.3844 406.0952,489.7438 Q404.7827,488.0875 404.7827,484.9625 Q404.7827,481.8375 406.0952,480.1813 Q407.4233,478.525 409.9233,478.525 Q410.6265,478.525 411.2671,478.6813 Q411.9233,478.8375 412.4858,479.1344 L412.4858,481.8531 Q411.8608,481.275 411.2671,481.0094 Q410.6733,480.7281 410.0483,480.7281 Q408.7046,480.7281 408.0171,481.8063 Q407.3296,482.8688 407.3296,484.9625 Q407.3296,487.0563 408.0171,488.1344 Q408.7046,489.1969 410.0483,489.1969 Q410.6733,489.1969 411.2671,488.9313 Q411.8608,488.65 412.4858,488.0719 L412.4858,490.7906 Z " fill="#000000"/><text fill="#000000" font-family="sans-serif" font-size="14" lengthAdjust="spacing" textLength="116.3135" x="430.0171" y="489.9967">AttackAnimation</text><line style="stroke:#181818;stroke-width:0.5;" x1="8" x2="935.8477" y1="501.15" y2="501.15"/><rect fill="#FFFFFF" fill-opacity="0.00000" height="6" style="stroke:#C82930;stroke-width:1;" width="6" x="15" y="511.7984"/><text fill="#000000" font-family="sans-serif" font-size="14" lengthAdjust="spacing" textLength="248.9717" x="27" y="518.1451">attackDataModel: AttackDataModel</text><rect fill="#FFFFFF" fill-opacity="0.00000" height="6" style="stroke:#C82930;stroke-width:1;" width="6" x="15" y="528.0953"/><text fill="#000000" font-family="sans-serif" font-size="14" lengthAdjust="spacing" textLength="159.7354" x="27" y="534.442">sprite: CharacterSprite</text><rect fill="#FFFFFF" fill-opacity="0.00000" height="6" style="stroke:#C82930;stroke-width:1;" width="6" x="15" y="544.3922"/><text fill="#000000" font-family="sans-serif" font-size="14" lengthAdjust="spacing" textLength="209.1934" x="27" y="550.7389">mathService: TileMathService</text><rect fill="#FFFFFF" fill-opacity="0.00000" height="6" style="stroke:#C82930;stroke-width:1;" width="6" x="15" y="560.6891"/><text fill="#000000" font-family="sans-serif" font-size="14" lengthAdjust="spacing" textLength="219.6455" x="27" y="567.0357">damageTile: StaticTiledMapTile</text><line style="stroke:#181818;stroke-width:0.5;" x1="8" x2="935.8477" y1="574.3375" y2="574.3375"/><ellipse cx="18" cy="587.9859" fill="#84BE84" rx="3" ry="3" style="stroke:#038048;stroke-width:1;"/><text fill="#000000" font-family="sans-serif" font-size="14" lengthAdjust="spacing" textLength="903.8477" x="27" y="591.3326">AttackAnimation(attackDataModel: AttackDataModel, sprite: CharacterSprite, mathService: TileMathService, atlas: TextureAtlas)</text><ellipse cx="18" cy="604.2828" fill="#84BE84" rx="3" ry="3" style="stroke:#038048;stroke-width:1;"/><text fill="#000000" font-family="sans-serif" font-size="14" lengthAdjust="spacing" textLength="192.2949" x="27" y="607.6295">isAnimationOver(): boolean</text><ellipse cx="18" cy="620.5797" fill="#84BE84" rx="3" ry="3" style="stroke:#038048;stroke-width:1;"/><text fill="#000000" font-family="sans-serif" font-size="14" lengthAdjust="spacing" textLength="390.6943" x="27" y="623.9264">startAnimation(outcomeLayer: TiledMapTileLayer): void</text><rect fill="#F24D5C" height="6" style="stroke:#C82930;stroke-width:1;" width="6" x="15" y="633.8766"/><text fill="#000000" font-family="sans-serif" font-size="14" lengthAdjust="spacing" textLength="317.7344" x="27" y="640.2232">attackedInPlace(position: Vector2D): boolean</text></g><!--class CollisionAnimation--><g id="elem_CollisionAnimation"><rect codeLine="32" fill="#F1F1F1" height="162.0781" id="CollisionAnimation" rx="2.5" ry="2.5" style="stroke:#181818;stroke-width:0.5;" width="1168.6543" x="971.6" y="477.3"/><ellipse cx="1486.6742" cy="493.3" fill="#ADD1B2" rx="11" ry="11" style="stroke:#181818;stroke-width:1;"/><path d="M1489.643,498.9406 Q1489.0648,499.2375 1488.4242,499.3781 Q1487.7836,499.5344 1487.0805,499.5344 Q1484.5805,499.5344 1483.2523,497.8937 Q1481.9398,496.2375 1481.9398,493.1125 Q1481.9398,489.9875 1483.2523,488.3312 Q1484.5805,486.675 1487.0805,486.675 Q1487.7836,486.675 1488.4242,486.8312 Q1489.0805,486.9875 1489.643,487.2844 L1489.643,490.0031 Q1489.018,489.425 1488.4242,489.1594 Q1487.8305,488.8781 1487.2055,488.8781 Q1485.8617,488.8781 1485.1742,489.9562 Q1484.4867,491.0187 1484.4867,493.1125 Q1484.4867,495.2062 1485.1742,496.2844 Q1485.8617,497.3469 1487.2055,497.3469 Q1487.8305,497.3469 1488.4242,497.0812 Q1489.018,496.8 1489.643,496.2219 L1489.643,498.9406 Z " fill="#000000"/><text fill="#000000" font-family="sans-serif" font-size="14" lengthAdjust="spacing" textLength="130.0059" x="1507.1742" y="498.1467">CollisionAnimation</text><line style="stroke:#181818;stroke-width:0.5;" x1="972.6" x2="2139.2543" y1="509.3" y2="509.3"/><rect fill="#FFFFFF" fill-opacity="0.00000" height="6" style="stroke:#C82930;stroke-width:1;" width="6" x="979.6" y="519.9484"/><text fill="#000000" font-family="sans-serif" font-size="14" lengthAdjust="spacing" textLength="318.8691" x="991.6" y="526.2951">movementDataModel1: MovementDataModel</text><rect fill="#FFFFFF" fill-opacity="0.00000" height="6" style="stroke:#C82930;stroke-width:1;" width="6" x="979.6" y="536.2453"/><text fill="#000000" font-family="sans-serif" font-size="14" lengthAdjust="spacing" textLength="168.6426" x="991.6" y="542.592">sprite1: CharacterSprite</text><rect fill="#FFFFFF" fill-opacity="0.00000" height="6" style="stroke:#C82930;stroke-width:1;" width="6" x="979.6" y="552.5422"/><text fill="#000000" font-family="sans-serif" font-size="14" lengthAdjust="spacing" textLength="318.8691" x="991.6" y="558.8889">movementDataModel2: MovementDataModel</text><rect fill="#FFFFFF" fill-opacity="0.00000" height="6" style="stroke:#C82930;stroke-width:1;" width="6" x="979.6" y="568.8391"/><text fill="#000000" font-family="sans-serif" font-size="14" lengthAdjust="spacing" textLength="168.6426" x="991.6" y="575.1857">sprite2: CharacterSprite</text><line style="stroke:#181818;stroke-width:0.5;" x1="972.6" x2="2139.2543" y1="582.4875" y2="582.4875"/><ellipse cx="982.6" cy="596.1359" fill="#84BE84" rx="3" ry="3" style="stroke:#038048;stroke-width:1;"/><text fill="#000000" font-family="sans-serif" font-size="14" lengthAdjust="spacing" textLength="1142.6543" x="991.6" y="599.4826">CollisionAnimation(movementDataModel1: MovementDataModel, sprite1: CharacterSprite, movementDataModel2: MovementDataModel, sprite2: CharacterSprite)</text><ellipse cx="982.6" cy="612.4328" fill="#84BE84" rx="3" ry="3" style="stroke:#038048;stroke-width:1;"/><text fill="#000000" font-family="sans-serif" font-size="14" lengthAdjust="spacing" textLength="192.2949" x="991.6" y="615.7795">isAnimationOver(): boolean</text><ellipse cx="982.6" cy="628.7297" fill="#84BE84" rx="3" ry="3" style="stroke:#038048;stroke-width:1;"/><text fill="#000000" font-family="sans-serif" font-size="14" lengthAdjust="spacing" textLength="390.6943" x="991.6" y="632.0764">startAnimation(outcomeLayer: TiledMapTileLayer): void</text></g><!--class MovementAnimation--><g id="elem_MovementAnimation"><rect codeLine="42" fill="#F1F1F1" height="129.4844" id="MovementAnimation" rx="2.5" ry="2.5" style="stroke:#181818;stroke-width:0.5;" width="661.0518" x="2175.4" y="493.6"/><ellipse cx="2428.9107" cy="509.6" fill="#ADD1B2" rx="11" ry="11" style="stroke:#181818;stroke-width:1;"/><path d="M2431.8795,515.2406 Q2431.3014,515.5375 2430.6607,515.6781 Q2430.0201,515.8344 2429.317,515.8344 Q2426.817,515.8344 2425.4889,514.1937 Q2424.1764,512.5375 2424.1764,509.4125 Q2424.1764,506.2875 2425.4889,504.6312 Q2426.817,502.975 2429.317,502.975 Q2430.0201,502.975 2430.6607,503.1312 Q2431.317,503.2875 2431.8795,503.5844 L2431.8795,506.3031 Q2431.2545,505.725 2430.6607,505.4594 Q2430.067,505.1781 2429.442,505.1781 Q2428.0982,505.1781 2427.4107,506.2562 Q2426.7232,507.3187 2426.7232,509.4125 Q2426.7232,511.5062 2427.4107,512.5844 Q2428.0982,513.6469 2429.442,513.6469 Q2430.067,513.6469 2430.6607,513.3812 Q2431.2545,513.1 2431.8795,512.5219 L2431.8795,515.2406 Z " fill="#000000"/><text fill="#000000" font-family="sans-serif" font-size="14" lengthAdjust="spacing" textLength="145.5303" x="2449.4107" y="514.4467">MovementAnimation</text><line style="stroke:#181818;stroke-width:0.5;" x1="2176.4" x2="2835.4518" y1="525.6" y2="525.6"/><rect fill="#FFFFFF" fill-opacity="0.00000" height="6" style="stroke:#C82930;stroke-width:1;" width="6" x="2183.4" y="536.2484"/><text fill="#000000" font-family="sans-serif" font-size="14" lengthAdjust="spacing" textLength="309.9619" x="2195.4" y="542.5951">movementDataModel: MovementDataModel</text><rect fill="#FFFFFF" fill-opacity="0.00000" height="6" style="stroke:#C82930;stroke-width:1;" width="6" x="2183.4" y="552.5453"/><text fill="#000000" font-family="sans-serif" font-size="14" lengthAdjust="spacing" textLength="159.7354" x="2195.4" y="558.892">sprite: CharacterSprite</text><line style="stroke:#181818;stroke-width:0.5;" x1="2176.4" x2="2835.4518" y1="566.1937" y2="566.1937"/><ellipse cx="2186.4" cy="579.8422" fill="#84BE84" rx="3" ry="3" style="stroke:#038048;stroke-width:1;"/><text fill="#000000" font-family="sans-serif" font-size="14" lengthAdjust="spacing" textLength="635.0518" x="2195.4" y="583.1889">MovementAnimation(movementDataModel: MovementDataModel, sprite: CharacterSprite)</text><ellipse cx="2186.4" cy="596.1391" fill="#84BE84" rx="3" ry="3" style="stroke:#038048;stroke-width:1;"/><text fill="#000000" font-family="sans-serif" font-size="14" lengthAdjust="spacing" textLength="192.2949" x="2195.4" y="599.4857">isAnimationOver(): boolean</text><ellipse cx="2186.4" cy="612.4359" fill="#84BE84" rx="3" ry="3" style="stroke:#038048;stroke-width:1;"/><text fill="#000000" font-family="sans-serif" font-size="14" lengthAdjust="spacing" textLength="390.6943" x="2195.4" y="615.7826">startAnimation(outcomeLayer: TiledMapTileLayer): void</text></g><!--link TurnResultAnimationHandler to AbstractAnimation--><g id="link_TurnResultAnimationHandler_AbstractAnimation"><path codeLine="50" d="M1555.92,234.62 C1555.92,261.57 1555.92,282.91 1555.92,305.04 " fill="#FFFFFF" fill-opacity="0.00000" id="TurnResultAnimationHandler-to-AbstractAnimation" style="stroke:#181818;stroke-width:1;"/><polygon fill="#181818" points="1555.92,311.04,1559.92,302.04,1555.92,306.04,1551.92,302.04,1555.92,311.04" style="stroke:#181818;stroke-width:1;"/><polygon fill="#000000" points="1560.92,277.8264,1563.8589,268.7813,1557.9811,268.7813,1560.92,277.8264" style="stroke:#000000;stroke-width:1;"/><text fill="#000000" font-family="sans-serif" font-size="13" lengthAdjust="spacing" textLength="29.7832" x="1569.92" y="277.3269">uses</text></g><!--reverse link AbstractAnimation to AttackAnimation--><g id="link_AbstractAnimation_AttackAnimation"><path codeLine="51" d="M1329.574,401.3348 C1213.704,422.1648 1084.66,445.42 953.92,469.15 C948.38,470.16 942.8,471.18 937.19,472.2 " fill="#FFFFFF" fill-opacity="0.00000" id="AbstractAnimation-backto-AttackAnimation" style="stroke:#181818;stroke-width:1;"/><polygon fill="#FFFFFF" fill-opacity="0.00000" points="1347.29,398.15,1328.5124,395.4295,1330.6356,407.2402,1347.29,398.15" style="stroke:#181818;stroke-width:1;"/></g><!--reverse link AbstractAnimation to CollisionAnimation--><g id="link_AbstractAnimation_CollisionAnimation"><path codeLine="52" d="M1555.92,426.56 C1555.92,447.14 1555.92,453.76 1555.92,476.99 " fill="#FFFFFF" fill-opacity="0.00000" id="AbstractAnimation-backto-CollisionAnimation" style="stroke:#181818;stroke-width:1;"/><polygon fill="#FFFFFF" fill-opacity="0.00000" points="1555.92,408.56,1549.92,426.56,1561.92,426.56,1555.92,408.56" style="stroke:#181818;stroke-width:1;"/></g><!--reverse link AbstractAnimation to MovementAnimation--><g id="link_AbstractAnimation_MovementAnimation"><path codeLine="53" d="M1782.2842,397.6135 C1898.4842,417.4135 2027.8,440.98 2157.92,469.15 C2191.58,476.44 2226.92,484.69 2261.64,493.15 " fill="#FFFFFF" fill-opacity="0.00000" id="AbstractAnimation-backto-MovementAnimation" style="stroke:#181818;stroke-width:1;"/><polygon fill="#FFFFFF" fill-opacity="0.00000" points="1764.54,394.59,1781.2764,403.5283,1783.2921,391.6988,1764.54,394.59" style="stroke:#181818;stroke-width:1;"/></g><!--SRC=[lLN1Rjim3BtdAtHqKFdG78qWWD4SDc11jwNOpgpC9K9boPFaOCMsVv-KgeuZsOc1eSt52TyZzSX7EKo0CUIXrV8hcbROKl8QB5Vo0yXAe2Q_PyHzSWAlm9SMMon8gJKyh_5dYyloqLWDx9Ix2ZcM2wmsq1Ja8NmBWAFjjwWFdE4BjZa50aMrbgaQFy4pwbE-Vnv3iQhxWwSzAYKGP0nkBMYBrJb-Sw7hp7PGqQDHOXhDhLFRDFuuzrnkhUPoHydT7lmCK6-Fb1KTw9vUR9mIiCuD5yTVxdmi_QzvqChDMadypks-qvhDuuOQhNOQZJcZ71Il0cxy78R1d6ZyuNBtzxsvTuo_inaxBafYTRSVK_poRPHznz8M8ebNggRwh0NsbAg3OtmD5ZQgGb44OXS8j1TxYzZCwLjRGGqxz5X1tDPPplgQGu-HoEoQE3gcwx_swKsCw4yRgu_oim26MQCCzrKAyWsPLNgnxXtNUNUdXE36qLBxQdN06gNjHdBhBbySE_FmTjJ4E6rnhTHYkDJDWE1iab0wgf5EaqT7bStVwPwzIffWrRNnZaqtEIARKdhqhhpzP2xyYURvQk3LMP3Me26hMGej_-Hv_9uOewLhECPCHleF]--></g></svg>